PathFileType	3	(X/Y/Z)	F:\ViconData\AntennenMessung\Messung1\Session1\ID16.trc
DataRate	CameraRate	NumFrames	NumMarkers	Units	OrigDataRate	OrigDataStartFrame	OrigNumFrames
120.0	120.0	5	70	mm	120.0	1	900	
Frame#	Time	Ashort			Along			Atop			A4			Bshort			Blong			Btop			B4			Cshort			Clong			Ctop			C4			Dshort			Dlong			Dtop			D4			Eshort			Elong			Etop			E4			Fshort			Flong			Ftop			F4			Gshort			Glong			Gtop			G4			Hshort			Hlong			Htop			H4			I1			I2			I3			I4			I5			WandAshort			WandAlong			WandAtop			WandA4			WandA15			WandBshort			WandB4			WandB5			WandBtop			WandBlong			WandCshort			WandClong			WandCtop			WandC4			WandC5			Acenter			Aantenna			Bcenter			Bantenna			Ccenter			Cantenna			Dcenter			Dantenna			Ecenter			Eantenna			Fcenter			Fantenna			Gcenter			Gantenna			Hcenter			Hantenna			Icenter			Iantenna			
		X1	Y1	Z1	X2	Y2	Z2	X3	Y3	Z3	X4	Y4	Z4	X5	Y5	Z5	X6	Y6	Z6	X7	Y7	Z7	X8	Y8	Z8	X9	Y9	Z9	X10	Y10	Z10	X11	Y11	Z11	X12	Y12	Z12	X13	Y13	Z13	X14	Y14	Z14	X15	Y15	Z15	X16	Y16	Z16	X17	Y17	Z17	X18	Y18	Z18	X19	Y19	Z19	X20	Y20	Z20	X21	Y21	Z21	X22	Y22	Z22	X23	Y23	Z23	X24	Y24	Z24	X25	Y25	Z25	X26	Y26	Z26	X27	Y27	Z27	X28	Y28	Z28	X29	Y29	Z29	X30	Y30	Z30	X31	Y31	Z31	X32	Y32	Z32	X33	Y33	Z33	X34	Y34	Z34	X35	Y35	Z35	X36	Y36	Z36	X37	Y37	Z37	X38	Y38	Z38	X39	Y39	Z39	X40	Y40	Z40	X41	Y41	Z41	X42	Y42	Z42	X43	Y43	Z43	X44	Y44	Z44	X45	Y45	Z45	X46	Y46	Z46	X47	Y47	Z47	X48	Y48	Z48	X49	Y49	Z49	X50	Y50	Z50	X51	Y51	Z51	X52	Y52	Z52	X53	Y53	Z53	X54	Y54	Z54	X55	Y55	Z55	X56	Y56	Z56	X57	Y57	Z57	X58	Y58	Z58	X59	Y59	Z59	X60	Y60	Z60	X61	Y61	Z61	X62	Y62	Z62	X63	Y63	Z63	X64	Y64	Z64	X65	Y65	Z65	X66	Y66	Z66	X67	Y67	Z67	X68	Y68	Z68	X69	Y69	Z69	X70	Y70	Z70	
1	0	-1038.2285	214.57666	-1644.1093	-1109.3926	204.18732	-1599.3323	-1063.4452	172.82443	-1626.1239	-1054.1493	262.20636	-1634.9415	-1352.7939	235.25653	1003.7824	-1281.4901	227.27701	1052.5425	-1322.7286	193.92638	1020.9053	-1284.7045	287.88959	1052.8256	813.82239	187.8548	1209.5238	892.35052	178.34122	1179.2812	844.29462	145.67435	1198.2393	860.80273	292.74048	1168.2562	1115.7966	209.60223	-1401.537	1056.2744	194.15231	-1460.2953	1095.0054	162.37369	-1423.9083	1069.8206	238.88824	-1425.9305	-1204.5171	1685.8915	-1563.2284	-1129.113	1688.2415	-1605.9813	-1173.1542	1724.4418	-1581.9329	-1134.0033	1580.9683	-1603.8195	-1239.7513	1699.3322	1119.55	-1309.2507	1698.5537	1071.8414	-1270.5262	1736.4224	1096.9226	-1245.6012	1592.7865	1110.6891	988.8681	1664.2156	1162.1617	955.48633	1701.0857	1182.3073	921.69153	1662.3906	1214.8854	939.73053	1659.3907	1159.9169	999.09497	1668.4169	-1579.3954	1058.9725	1670.2275	-1518.6837	1024.9709	1707.9865	-1551.1211	1059.2318	1672.1611	-1585.4531	-146.93626	1161.3	-186.54134	-232.23056	1160.6729	-187.79836	-185.33023	1198.4528	-188.53284	-183.85748	1159.5554	-219.47072	-185.48824	1163.7268	-139.96646																																														-1068.3076	210.18533	-1625.1831	-1073.3395	248.84711	-1624.2096	-1321.4459	231.74841	1025.2191	-1320.1326	270.47522	1029.6362	848.1546	183.69547	1196.3018	852.08881	222.44624	1194.3271	1088.7947	202.59346	-1428.1923	1082.8756	240.92484	-1432.2751	-1171.8732	1686.9088	-1581.7369	-1170.5431	1647.932	-1581.5334	-1270.9419	1698.9827	1098.1388	-1271.3745	1660.0057	1099.405	951.33917	1705.666	1184.8099	970.4613	1733.5779	1165.412	1026.5674	1669.2476	-1551.5402	1028.173	1630.2828	-1551.9618	-185.07603	1161.0195	-187.10341	-184.81139	1122.0488	-185.61526
2	0.0083333333	-1038.2159	214.60591	-1644.127	-1109.375	204.17105	-1599.319	-1063.3611	172.76665	-1626.4968	-1054.1451	262.19421	-1634.9153	-1352.783	235.27559	1003.7613	-1281.4242	227.25905	1052.4915	-1322.8237	193.83275	1020.9876	-1284.6305	287.88086	1052.7783	813.96875	187.56036	1209.4414	892.05603	178.5032	1179.2582	844.35516	145.62318	1198.2788	860.80005	292.78781	1168.182	1115.8519	210.01231	-1401.7694	1056.2587	194.09375	-1460.2896	1095.0636	162.51421	-1423.8232	1069.8373	238.85265	-1425.9204	-1204.5209	1685.896	-1563.2266	-1129.1071	1688.2688	-1605.9951	-1173.1448	1724.4432	-1581.936	-1134.0195	1580.974	-1603.8115	-1239.7689	1699.3439	1119.547	-1309.1744	1698.4502	1071.7998	-1270.5051	1736.3988	1096.9106	-1245.6459	1592.8401	1110.7194	988.86652	1664.209	1162.1569	955.53088	1701.1172	1182.3446	921.61096	1662.3414	1214.8455	939.70129	1659.3523	1159.9069	999.09637	1668.4069	-1579.3759	1058.7706	1669.9542	-1518.7129	1024.9812	1707.9879	-1551.1323	1059.2422	1672.1605	-1585.4602	-146.91545	1161.2988	-186.52989	-232.22391	1160.6781	-187.79109	-185.23354	1198.313	-188.53146	-184.10707	1159.3005	-219.16885	-185.48738	1163.7264	-139.9399																																														-1068.1041	210.22304	-1625.3066	-1073.0013	248.89484	-1624.0778	-1321.4238	231.75267	1025.1759	-1319.9939	270.49084	1029.4546	847.99292	183.61397	1196.29	851.70526	222.3838	1194.2605	1088.7683	202.77777	-1428.3651	1082.7812	241.07257	-1432.6849	-1171.8588	1686.9236	-1581.7496	-1170.5228	1647.9469	-1581.5563	-1270.8741	1698.9432	1098.1482	-1271.2582	1659.9664	1099.4362	951.41473	1705.6742	1184.8372	970.61084	1733.584	1165.5095	1026.4417	1669.1157	-1551.5773	1027.9058	1630.1459	-1552.0237	-184.98344	1161.0219	-187.09268	-184.72212	1122.0518	-185.58914
3	0.016666667	-1038.2174	214.58228	-1644.1265	-1109.3738	204.15451	-1599.3395	-1063.4474	172.82826	-1626.1343	-1054.1458	262.22867	-1634.9326	-1352.8315	235.2514	1003.8079	-1281.4319	227.19725	1052.5514	-1322.7734	193.86327	1020.9403	-1284.6583	287.88361	1052.7279	813.96472	187.60187	1209.4689	892.17029	178.62263	1179.1173	844.32574	145.65697	1198.2302	860.86572	292.75778	1168.2734	1115.7764	209.59752	-1401.5549	1056.2631	194.13452	-1460.3031	1095.0114	162.42941	-1423.9031	1069.8225	238.87524	-1425.9359	-1204.5067	1685.87	-1563.2314	-1129.1224	1688.3427	-1606.2635	-1173.1454	1724.4424	-1581.9371	-1134.0126	1580.9619	-1603.7877	-1239.7347	1699.316	1119.5457	-1309.2277	1698.5289	1071.8339	-1270.4923	1736.3842	1096.9036	-1245.687	1592.911	1110.7305	988.80566	1664.134	1162.1627	957.40564	1700.2325	1183.8458	921.6712	1662.3268	1214.8685	939.72839	1659.3953	1159.9304	999.09161	1668.4103	-1579.381	1058.9629	1670.2363	-1518.6896	1024.9779	1707.9799	-1551.1224	1059.2328	1672.162	-1585.458	-146.91757	1161.3016	-186.52316	-232.23062	1160.6879	-187.79311	-185.33449	1198.4542	-188.52792	-184.18678	1159.4617	-219.13588	-185.4839	1163.7179	-139.94864																																														-1068.3191	210.17096	-1625.1799	-1073.3627	248.83083	-1624.1919	-1321.439	231.71017	1025.2391	-1320.0732	270.43726	1029.6378	847.93829	183.70114	1196.2837	851.6203	222.47623	1194.2997	1088.8016	202.58881	-1428.1829	1082.8748	240.91879	-1432.2676	-1171.8717	1686.9404	-1581.8607	-1170.5479	1647.963	-1581.7812	-1270.9158	1698.9626	1098.1376	-1271.3568	1659.9863	1099.4231	952.55316	1705.8109	1187.1967	972.59784	1734.0353	1169.2356	1026.5692	1669.2483	-1551.5267	1028.1703	1630.2833	-1551.9337	-185.08665	1161.027	-187.09134	-184.82861	1122.0565	-185.5955
4	0.025	-1038.1953	214.59903	-1644.1099	-1109.3762	204.1777	-1599.3488	-1063.4462	172.82732	-1626.1384	-1054.1459	262.19159	-1634.9128	-1352.9413	234.924	1003.7862	-1281.4634	227.2626	1052.5122	-1322.8539	193.81671	1021.0583	-1284.651	287.88953	1052.7937	813.78741	187.84058	1209.4772	891.97076	178.44644	1179.2568	844.28516	145.63951	1198.2158	860.78772	292.76324	1168.0386	1115.8571	210.02467	-1401.7791	1056.2781	194.13652	-1460.3071	1095.062	162.47414	-1423.9152	1069.9688	239.13496	-1425.8456	-1204.527	1685.8995	-1563.2448	-1129.1038	1688.2623	-1605.9692	-1173.1454	1724.4436	-1581.9357	-1134.0216	1580.9707	-1603.7854	-1239.7574	1699.3438	1119.5446	-1309.2015	1698.4988	1071.8253	-1270.467	1736.3503	1096.8938	-1245.653	1592.8705	1110.7185	988.8576	1664.2189	1162.1484	957.37592	1700.2739	1183.7877	922.50037	1662.0444	1214.968	939.69745	1659.3792	1159.9358	999.08624	1668.4125	-1579.3793	1058.7665	1669.9495	-1518.7037	1024.9845	1707.9938	-1551.1318	1059.2479	1672.1696	-1585.4707	-146.92644	1161.2924	-186.53217	-232.21762	1160.6799	-187.79227	-185.3291	1198.4373	-188.52782	-184.13971	1159.3484	-219.09645	-185.4678	1163.7146	-139.95255																																														-1068.3092	210.19014	-1625.173	-1073.3413	248.85124	-1624.174	-1321.5986	231.56451	1025.1522	-1320.3101	270.31598	1029.355	848.08856	183.7191	1196.2186	851.95941	222.47327	1194.1859	1088.7367	202.79236	-1428.4209	1082.7285	241.08838	-1432.7009	-1171.8633	1686.9227	-1581.7474	-1170.5316	1647.9459	-1581.5519	-1270.8807	1698.965	1098.1576	-1271.3119	1659.9896	1099.4755	952.87726	1705.426	1186.8798	972.63971	1733.6488	1168.6064	1026.4353	1669.1167	-1551.574	1027.8898	1630.1464	-1552.0175	-185.08162	1161.0183	-187.09589	-184.82387	1122.0476	-185.60454
5	0.033333333	-1038.2109	214.56595	-1644.1165	-1109.3885	204.19002	-1599.3439	-1063.4434	172.82634	-1626.1113	-1054.1444	262.19513	-1634.9036	-1352.8389	235.22681	1003.8302	-1281.3859	227.27165	1052.3778	-1322.806	193.8674	1020.9608	-1284.601	287.92328	1052.7375	813.86884	187.80261	1209.6017	892.10406	178.54285	1179.2705	844.34253	145.60655	1198.3234	860.82196	292.73441	1168.3474	1115.7649	209.61391	-1401.5615	1056.2603	194.15314	-1460.2935	1095.073	162.4696	-1423.8293	1069.8032	238.87204	-1425.9193	-1204.5229	1685.9008	-1563.2197	-1129.1117	1688.2852	-1606.0066	-1173.1517	1724.441	-1581.9362	-1134.0265	1580.9803	-1603.7959	-1239.7327	1699.3077	1119.5327	-1309.1825	1698.475	1071.8104	-1270.4537	1736.3322	1096.8922	-1245.6328	1592.8278	1110.7074	988.81671	1664.1465	1162.188	957.35071	1700.2736	1183.8104	921.73523	1662.3252	1214.889	939.72058	1659.3907	1159.9473	999.08167	1668.4252	-1579.3784	1058.9619	1670.2217	-1518.6792	1024.9844	1707.9926	-1551.1292	1059.2445	1672.1599	-1585.4572	-146.93416	1161.2926	-186.53276	-232.22627	1160.6799	-187.79662	-185.32489	1198.4442	-188.52184	-184.12241	1159.3003	-219.16397	-185.47305	1163.717	-139.94521																																														-1068.306	210.1788	-1625.1857	-1073.3395	248.84077	-1624.2278	-1321.4441	231.73148	1025.1609	-1320.0507	270.46899	1029.4578	848.08673	183.75264	1196.3356	851.89136	222.51402	1194.3158	1088.8657	202.62488	-1428.1111	1082.9408	240.9549	-1432.1982	-1171.8611	1686.9333	-1581.7513	-1170.5199	1647.9569	-1581.5596	-1270.8634	1698.9344	1098.1412	-1271.2904	1659.9585	1099.4429	952.54767	1705.7878	1187.1108	972.54791	1733.9994	1169.0803	1026.5535	1669.2493	-1551.5306	1028.132	1630.2833	-1551.9344	-185.07721	1161.0184	-187.09796	-184.81929	1122.0475	-185.61531
